<svg width="16" height="16" viewBox="0 0 16 16" fill="none" xmlns="http://www.w3.org/2000/svg">
<g clip-path="url(#clip0)">
<path d="M9.46586 8.01475L15.696 1.78447C16.1014 1.37922 16.1014 0.72398 15.696 0.318726C15.2907 -0.0865276 14.6355 -0.0865276 14.2302 0.318726L7.99992 6.549L1.76983 0.318726C1.36439 -0.0865276 0.709337 -0.0865276 0.304083 0.318726C-0.101361 0.72398 -0.101361 1.37922 0.304083 1.78447L6.53417 8.01475L0.304083 14.245C-0.101361 14.6503 -0.101361 15.3055 0.304083 15.7108C0.506045 15.9129 0.771596 16.0145 1.03696 16.0145C1.30232 16.0145 1.56768 15.9129 1.76983 15.7108L7.99992 9.4805L14.2302 15.7108C14.4324 15.9129 14.6977 16.0145 14.9631 16.0145C15.2284 16.0145 15.4938 15.9129 15.696 15.7108C16.1014 15.3055 16.1014 14.6503 15.696 14.245L9.46586 8.01475Z" fill="white"/>
</g>
<defs>
<clipPath id="clip0">
<rect width="16" height="16" fill="white"/>
</clipPath>
</defs>
</svg>
