<svg width="14" height="14" viewBox="0 0 14 14" fill="none" xmlns="http://www.w3.org/2000/svg">
<g clip-path="url(#clip0)">
<path d="M11.9497 2.05034C9.21586 -0.683457 4.78354 -0.683457 2.05032 2.0504C-0.683457 4.78417 -0.683457 9.21646 2.05043 11.9497C4.78354 14.6835 9.21586 14.6835 11.9497 11.9496C14.6835 9.21646 14.6835 4.78417 11.9497 2.05034ZM11.1247 11.1246C8.84652 13.4029 5.15298 13.4029 2.87539 11.1247C0.59716 8.84704 0.59716 5.1535 2.87533 2.87533C5.15298 0.597133 8.84652 0.597133 11.1247 2.87533C13.4029 5.15353 13.4029 8.84704 11.1247 11.1246Z" fill="#FA2215"/>
<path d="M6.99989 2.3335C6.67773 2.3335 6.41656 2.59466 6.41656 2.91682V8.75014C6.41656 9.07231 6.67773 9.33347 6.99989 9.33347C7.32205 9.33347 7.58321 9.07231 7.58321 8.75014V2.91682C7.58321 2.59466 7.32205 2.3335 6.99989 2.3335Z" fill="#FA2215"/>
<path d="M6.99989 10.5001C6.67789 10.5001 6.41656 10.7614 6.41656 11.0834C6.41656 11.4054 6.67789 11.6668 6.99989 11.6668C7.32189 11.6668 7.58321 11.4054 7.58321 11.0834C7.58321 10.7614 7.32189 10.5001 6.99989 10.5001Z" fill="#FA2215"/>
</g>
<defs>
<clipPath id="clip0">
<rect width="14" height="14" fill="white"/>
</clipPath>
</defs>
</svg>
