<svg width="36" height="36" viewBox="0 0 36 36" fill="none" xmlns="http://www.w3.org/2000/svg">
<path d="M18.5625 20.8125C18.5625 20.6633 18.5032 20.5202 18.3977 20.4148C18.2923 20.3093 18.1492 20.25 18 20.25C17.8508 20.25 17.7077 20.3093 17.6023 20.4148C17.4968 20.5202 17.4375 20.6633 17.4375 20.8125V21.4549C16.9559 21.5792 16.5291 21.8596 16.2238 22.2523C15.9185 22.6449 15.7519 23.1276 15.75 23.625V24.75C15.7519 25.2474 15.9185 25.7301 16.2238 26.1227C16.5291 26.5154 16.9559 26.7958 17.4375 26.9201V30.2186C17.267 30.1207 17.1253 29.9796 17.0266 29.8096C16.9279 29.6396 16.8756 29.4466 16.875 29.25V28.125C16.875 27.9758 16.8157 27.8327 16.7102 27.7273C16.6048 27.6218 16.4617 27.5625 16.3125 27.5625C16.1633 27.5625 16.0202 27.6218 15.9148 27.7273C15.8093 27.8327 15.75 27.9758 15.75 28.125V29.25C15.7519 29.7474 15.9185 30.2301 16.2238 30.6227C16.5291 31.0154 16.9559 31.2958 17.4375 31.4201V32.0625C17.4375 32.2117 17.4968 32.3548 17.6023 32.4602C17.7077 32.5657 17.8508 32.625 18 32.625C18.1492 32.625 18.2923 32.5657 18.3977 32.4602C18.5032 32.3548 18.5625 32.2117 18.5625 32.0625V31.4201C19.0441 31.2958 19.4709 31.0154 19.7762 30.6227C20.0815 30.2301 20.2481 29.7474 20.25 29.25V28.125C20.2481 27.6276 20.0815 27.1449 19.7762 26.7523C19.4709 26.3596 19.0441 26.0792 18.5625 25.9549V22.6564C18.733 22.7543 18.8747 22.8954 18.9734 23.0654C19.0721 23.2354 19.1244 23.4284 19.125 23.625V24.75C19.125 24.8992 19.1843 25.0423 19.2898 25.1477C19.3952 25.2532 19.5383 25.3125 19.6875 25.3125C19.8367 25.3125 19.9798 25.2532 20.0852 25.1477C20.1907 25.0423 20.25 24.8992 20.25 24.75V23.625C20.2481 23.1276 20.0815 22.6449 19.7762 22.2523C19.4709 21.8596 19.0441 21.5792 18.5625 21.4549V20.8125ZM17.4375 25.7186C17.267 25.6207 17.1253 25.4796 17.0266 25.3096C16.9279 25.1396 16.8756 24.9466 16.875 24.75V23.625C16.8756 23.4284 16.9279 23.2354 17.0266 23.0654C17.1253 22.8954 17.267 22.7543 17.4375 22.6564V25.7186ZM19.125 28.125V29.25C19.1244 29.4466 19.0721 29.6396 18.9734 29.8096C18.8747 29.9796 18.733 30.1207 18.5625 30.2186V27.1564C18.733 27.2543 18.8747 27.3954 18.9734 27.5654C19.0721 27.7354 19.1244 27.9284 19.125 28.125Z" fill="#EF3024"/>
<path d="M27.5625 10.2049V9.5625C27.5625 9.41332 27.5032 9.27024 27.3977 9.16475C27.2923 9.05926 27.1492 9 27 9C26.8508 9 26.7077 9.05926 26.6023 9.16475C26.4968 9.27024 26.4375 9.41332 26.4375 9.5625V10.2049C25.9559 10.3292 25.5291 10.6096 25.2238 11.0023C24.9185 11.3949 24.7519 11.8776 24.75 12.375V13.5C24.7519 13.9974 24.9185 14.4801 25.2238 14.8727C25.5291 15.2654 25.9559 15.5458 26.4375 15.6701V18.9686C26.267 18.8707 26.1253 18.7296 26.0266 18.5596C25.9279 18.3896 25.8756 18.1966 25.875 18V16.875C25.875 16.7258 25.8157 16.5827 25.7102 16.4773C25.6048 16.3718 25.4617 16.3125 25.3125 16.3125C25.1633 16.3125 25.0202 16.3718 24.9148 16.4773C24.8093 16.5827 24.75 16.7258 24.75 16.875V18C24.7519 18.4974 24.9185 18.9801 25.2238 19.3727C25.5291 19.7654 25.9559 20.0458 26.4375 20.1701V20.8125C26.4375 20.9617 26.4968 21.1048 26.6023 21.2102C26.7077 21.3157 26.8508 21.375 27 21.375C27.1492 21.375 27.2923 21.3157 27.3977 21.2102C27.5032 21.1048 27.5625 20.9617 27.5625 20.8125V20.1701C28.0441 20.0458 28.4709 19.7654 28.7762 19.3727C29.0815 18.9801 29.2481 18.4974 29.25 18V16.875C29.2481 16.3776 29.0815 15.8949 28.7762 15.5023C28.4709 15.1096 28.0441 14.8292 27.5625 14.7049V11.4064C27.733 11.5043 27.8747 11.6454 27.9734 11.8154C28.0721 11.9854 28.1244 12.1784 28.125 12.375V13.5C28.125 13.6492 28.1843 13.7923 28.2898 13.8977C28.3952 14.0032 28.5383 14.0625 28.6875 14.0625C28.8367 14.0625 28.9798 14.0032 29.0852 13.8977C29.1907 13.7923 29.25 13.6492 29.25 13.5V12.375C29.2481 11.8776 29.0815 11.3949 28.7762 11.0023C28.4709 10.6096 28.0441 10.3292 27.5625 10.2049V10.2049ZM26.4375 14.4686C26.267 14.3707 26.1253 14.2296 26.0266 14.0596C25.9279 13.8896 25.8756 13.6966 25.875 13.5V12.375C25.8756 12.1784 25.9279 11.9854 26.0266 11.8154C26.1253 11.6454 26.267 11.5043 26.4375 11.4064V14.4686ZM28.125 16.875V18C28.1244 18.1966 28.0721 18.3896 27.9734 18.5596C27.8747 18.7296 27.733 18.8707 27.5625 18.9686V15.9064C27.733 16.0043 27.8747 16.1454 27.9734 16.3154C28.0721 16.4854 28.1244 16.6784 28.125 16.875Z" fill="#EF3024"/>
<path d="M9.5625 10.2049V9.5625C9.5625 9.41332 9.50324 9.27024 9.39775 9.16475C9.29226 9.05926 9.14918 9 9 9C8.85082 9 8.70774 9.05926 8.60225 9.16475C8.49676 9.27024 8.4375 9.41332 8.4375 9.5625V10.2049C7.95592 10.3292 7.52911 10.6096 7.22379 11.0023C6.91848 11.3949 6.75186 11.8776 6.75 12.375V13.5C6.75186 13.9974 6.91848 14.4801 7.22379 14.8727C7.52911 15.2654 7.95592 15.5458 8.4375 15.6701V18.9686C8.26704 18.8707 8.12534 18.7296 8.02661 18.5596C7.92788 18.3896 7.87559 18.1966 7.875 18V16.875C7.875 16.7258 7.81574 16.5827 7.71025 16.4773C7.60476 16.3718 7.46168 16.3125 7.3125 16.3125C7.16332 16.3125 7.02024 16.3718 6.91475 16.4773C6.80926 16.5827 6.75 16.7258 6.75 16.875V18C6.75186 18.4974 6.91848 18.9801 7.22379 19.3727C7.52911 19.7654 7.95592 20.0458 8.4375 20.1701V20.8125C8.4375 20.9617 8.49676 21.1048 8.60225 21.2102C8.70774 21.3157 8.85082 21.375 9 21.375C9.14918 21.375 9.29226 21.3157 9.39775 21.2102C9.50324 21.1048 9.5625 20.9617 9.5625 20.8125V20.1701C10.0441 20.0458 10.4709 19.7654 10.7762 19.3727C11.0815 18.9801 11.2481 18.4974 11.25 18V16.875C11.2481 16.3776 11.0815 15.8949 10.7762 15.5023C10.4709 15.1096 10.0441 14.8292 9.5625 14.7049V11.4064C9.73296 11.5043 9.87466 11.6454 9.97339 11.8154C10.0721 11.9854 10.1244 12.1784 10.125 12.375V13.5C10.125 13.6492 10.1843 13.7923 10.2898 13.8977C10.3952 14.0032 10.5383 14.0625 10.6875 14.0625C10.8367 14.0625 10.9798 14.0032 11.0852 13.8977C11.1907 13.7923 11.25 13.6492 11.25 13.5V12.375C11.2481 11.8776 11.0815 11.3949 10.7762 11.0023C10.4709 10.6096 10.0441 10.3292 9.5625 10.2049V10.2049ZM8.4375 14.4686C8.26704 14.3707 8.12534 14.2296 8.02661 14.0596C7.92788 13.8896 7.87559 13.6966 7.875 13.5V12.375C7.87559 12.1784 7.92788 11.9854 8.02661 11.8154C8.12534 11.6454 8.26704 11.5043 8.4375 11.4064V14.4686ZM10.125 16.875V18C10.1244 18.1966 10.0721 18.3896 9.97339 18.5596C9.87466 18.7296 9.73296 18.8707 9.5625 18.9686V15.9064C9.73296 16.0043 9.87466 16.1454 9.97339 16.3154C10.0721 16.4854 10.1244 16.6784 10.125 16.875V16.875Z" fill="#EF3024"/>
<path d="M29.2903 7.28775L30.7185 3.6405C30.8935 3.33502 30.9671 2.98186 30.9286 2.6319C30.8901 2.28193 30.7415 1.95322 30.5042 1.69312C30.2702 1.42329 29.9549 1.23671 29.6057 1.16144C29.2566 1.08618 28.8924 1.12629 28.568 1.27575L27.2248 1.87706C27.1541 1.90903 27.0774 1.92556 26.9998 1.92556C26.9222 1.92556 26.8455 1.90903 26.7748 1.87706L25.4315 1.27631C25.1073 1.12632 24.7431 1.08587 24.3938 1.16106C24.0445 1.23625 23.7292 1.423 23.4954 1.69312C23.2581 1.95322 23.1095 2.28193 23.071 2.6319C23.0325 2.98186 23.106 3.33502 23.2811 3.6405L24.7093 7.28775L21.5227 12.969C21.516 12.9617 21.5115 12.9527 21.5042 12.9454C21.2702 12.6755 20.9549 12.489 20.6057 12.4137C20.2566 12.3384 19.8924 12.3785 19.568 12.528L18.2248 13.1271C18.1541 13.1591 18.0774 13.1757 17.9998 13.1757C17.9222 13.1757 17.8455 13.1591 17.7748 13.1271L16.431 12.5269C16.1068 12.3767 15.7425 12.3361 15.3932 12.4113C15.0439 12.4865 14.7285 12.6734 14.4948 12.9437C14.4881 12.951 14.483 12.9594 14.4768 12.9667L11.2903 7.28775L12.7185 3.6405C12.8935 3.33502 12.9671 2.98186 12.9286 2.6319C12.8901 2.28193 12.7415 1.95322 12.5042 1.69312C12.2702 1.42329 11.9549 1.23671 11.6057 1.16144C11.2566 1.08618 10.8924 1.12629 10.568 1.27575L9.22479 1.87706C9.15408 1.90903 9.07738 1.92556 8.99979 1.92556C8.92219 1.92556 8.84549 1.90903 8.77479 1.87706L7.43154 1.27631C7.10729 1.12632 6.74305 1.08587 6.39379 1.16106C6.04454 1.23625 5.72921 1.423 5.49541 1.69312C5.25812 1.95322 5.10951 2.28193 5.07099 2.6319C5.03248 2.98186 5.10605 3.33502 5.2811 3.6405L6.70929 7.28775L1.78741 16.0532C1.34414 16.831 1.11465 17.7122 1.12225 18.6074C1.12986 19.5026 1.3743 20.3799 1.83072 21.15C2.26287 21.9038 2.88676 22.5298 3.63907 22.9645C4.39137 23.3991 5.2453 23.627 6.11416 23.625H11.8854C12.2337 23.6213 12.5806 23.5808 12.9204 23.5041L10.7863 27.3043C10.3438 28.0822 10.1149 28.9634 10.1229 29.8583C10.1309 30.7532 10.3755 31.6301 10.8318 32.4C11.2644 33.1538 11.8886 33.7798 12.6411 34.2145C13.3937 34.6492 14.2479 34.877 15.117 34.875H20.8826C21.7517 34.877 22.6059 34.6492 23.3584 34.2145C24.111 33.7798 24.7352 33.1538 25.1677 32.4C25.6241 31.6301 25.8686 30.7532 25.8766 29.8583C25.8846 28.9634 25.6558 28.0822 25.2133 27.3043L23.0792 23.5041C23.4189 23.5808 23.7659 23.6213 24.1142 23.625H29.8854C30.7543 23.627 31.6082 23.3991 32.3605 22.9644C33.1128 22.5297 33.7367 21.9037 34.1689 21.15C34.6249 20.3802 34.8691 19.5035 34.8767 18.6088C34.8843 17.7142 34.655 16.8334 34.2122 16.056L29.2903 7.28775ZM24.3133 3.19106C24.302 3.16231 24.2884 3.13447 24.2728 3.10781C24.2081 3.00529 24.1792 2.88421 24.1906 2.76351C24.202 2.64281 24.253 2.52928 24.3358 2.44069C24.412 2.35014 24.5161 2.28748 24.6317 2.26253C24.7474 2.23759 24.8681 2.25178 24.9748 2.30287L26.318 2.90362C26.5332 2.99973 26.7661 3.0494 27.0018 3.0494C27.2374 3.0494 27.4703 2.99973 27.6855 2.90362L29.0248 2.30287C29.1312 2.25234 29.2514 2.23845 29.3666 2.26338C29.4818 2.28831 29.5855 2.35065 29.6615 2.44069C29.7443 2.52928 29.7954 2.64281 29.8068 2.76351C29.8182 2.88421 29.7893 3.00529 29.7245 3.10781C29.7089 3.13447 29.6954 3.16231 29.684 3.19106L28.2935 6.75H25.706L24.3133 3.19106ZM15.3358 13.6907C15.4117 13.6005 15.5154 13.538 15.6306 13.5131C15.7459 13.4881 15.8661 13.5021 15.9725 13.5529L17.3158 14.1536C17.5309 14.2497 17.7639 14.2994 17.9995 14.2994C18.2351 14.2994 18.4681 14.2497 18.6832 14.1536L20.0248 13.5529C20.1313 13.5024 20.2514 13.4886 20.3666 13.5135C20.4817 13.5384 20.5854 13.6007 20.6615 13.6907C20.7443 13.7793 20.7954 13.8928 20.8068 14.0135C20.8182 14.1342 20.7893 14.2553 20.7245 14.3578C20.7089 14.3845 20.6954 14.4123 20.684 14.4411L19.2935 18H16.706L15.3122 14.4411C15.3008 14.4123 15.2873 14.3845 15.2717 14.3578C15.2071 14.2552 15.1784 14.134 15.19 14.0133C15.2016 13.8926 15.2528 13.7792 15.3358 13.6907ZM6.31329 3.19106C6.30196 3.16231 6.28842 3.13447 6.27279 3.10781C6.20807 3.00529 6.17915 2.88421 6.19055 2.76351C6.20195 2.64281 6.25302 2.52928 6.33579 2.44069C6.41196 2.35014 6.51606 2.28748 6.63172 2.26253C6.74739 2.23759 6.86806 2.25178 6.97479 2.30287L8.31804 2.90362C8.53316 2.99973 8.76614 3.0494 9.00175 3.0494C9.23737 3.0494 9.47035 2.99973 9.68547 2.90362L11.0248 2.30287C11.1312 2.25234 11.2514 2.23845 11.3666 2.26338C11.4818 2.28831 11.5855 2.35065 11.6615 2.44069C11.7443 2.52928 11.7954 2.64281 11.8068 2.76351C11.8182 2.88421 11.7892 3.00529 11.7245 3.10781C11.7089 3.13447 11.6954 3.16231 11.684 3.19106L10.2935 6.75H7.70604L6.31329 3.19106ZM11.8854 22.5H6.11416C5.44167 22.5006 4.78099 22.3233 4.19919 21.986C3.6174 21.6488 3.13521 21.1635 2.8016 20.5796C2.44576 19.979 2.25525 19.2949 2.24942 18.5968C2.24359 17.8987 2.42265 17.2115 2.76841 16.605L7.66947 7.875H10.3301L14.3137 14.9737L15.7093 18.5383L13.7692 21.9937C13.1976 22.3272 12.5472 22.502 11.8854 22.5V22.5ZM24.2323 27.8556C24.5777 28.4626 24.7563 29.1501 24.7501 29.8485C24.7439 30.5468 24.553 31.2311 24.1968 31.8319C23.8627 32.4155 23.3801 32.9003 22.798 33.2372C22.2159 33.5741 21.5551 33.751 20.8826 33.75H15.117C14.4445 33.751 13.7836 33.5741 13.2016 33.2372C12.6195 32.9003 12.1369 32.4155 11.8027 31.8319C11.4466 31.2311 11.2557 30.5468 11.2495 29.8485C11.2432 29.1501 11.4219 28.4626 11.7673 27.8556L16.6706 19.125H19.329L24.2323 27.8556ZM33.198 20.5796C32.8644 21.1635 32.3822 21.6488 31.8004 21.986C31.2186 22.3233 30.5579 22.5006 29.8854 22.5H24.1142C23.4524 22.502 22.802 22.3272 22.2303 21.9937L20.2903 18.5389L21.6859 14.9743L25.6695 7.875H28.3301L33.2317 16.6056C33.5772 17.212 33.7561 17.8992 33.7502 18.5971C33.7443 19.2951 33.5537 19.9791 33.198 20.5796Z" fill="#EF3024"/>
</svg>
