<svg width="36" height="36" viewBox="0 0 36 36" fill="none" xmlns="http://www.w3.org/2000/svg">
<path d="M10.8322 32.4C11.2647 33.1538 11.8889 33.7798 12.6415 34.2145C13.394 34.6492 14.2482 34.877 15.1173 34.875H20.8829C21.752 34.877 22.6062 34.6492 23.3587 34.2145C24.1113 33.7798 24.7355 33.1538 25.168 32.4C25.6244 31.6301 25.869 30.7532 25.877 29.8583C25.885 28.9634 25.6561 28.0822 25.2136 27.3043L20.2906 18.5383L21.7188 14.8905C21.8889 14.582 21.9582 14.2281 21.917 13.8782C21.8758 13.5284 21.7261 13.2002 21.489 12.9397C21.2519 12.6792 20.9392 12.4994 20.5948 12.4256C20.2503 12.3518 19.8914 12.3876 19.5684 12.528L18.2251 13.1271C18.1544 13.1591 18.0777 13.1757 18.0001 13.1757C17.9225 13.1757 17.8458 13.1591 17.7751 13.1271L16.4313 12.5269C16.1071 12.3768 15.7428 12.3363 15.3935 12.4115C15.0442 12.4867 14.7289 12.6735 14.4952 12.9437C14.2579 13.2038 14.1093 13.5325 14.0707 13.8825C14.0322 14.2324 14.1058 14.5856 14.2809 14.8911L15.709 18.5389L10.7866 27.3043C10.3441 28.0822 10.1152 28.9634 10.1232 29.8583C10.1313 30.7532 10.3758 31.6301 10.8322 32.4V32.4ZM15.3136 14.4411C15.3023 14.4123 15.2887 14.3845 15.2731 14.3578C15.2084 14.2553 15.1795 14.1342 15.1909 14.0135C15.2023 13.8928 15.2533 13.7793 15.3361 13.6907C15.412 13.6005 15.5157 13.538 15.631 13.5131C15.7462 13.4881 15.8664 13.5021 15.9729 13.5529L17.3161 14.1536C17.5312 14.2497 17.7642 14.2994 17.9998 14.2994C18.2354 14.2994 18.4684 14.2497 18.6835 14.1536L20.0251 13.5529C20.1316 13.5024 20.2518 13.4886 20.3669 13.5135C20.4821 13.5384 20.5858 13.6007 20.6619 13.6907C20.7446 13.7793 20.7957 13.8928 20.8071 14.0135C20.8185 14.1342 20.7896 14.2553 20.7249 14.3578C20.7092 14.3845 20.6957 14.4123 20.6844 14.4411L19.2939 18H16.7064L15.3136 14.4411ZM11.7699 27.8556L16.6709 19.125H19.3293L24.2326 27.8556C24.578 28.4626 24.7567 29.1501 24.7504 29.8485C24.7442 30.5468 24.5533 31.2311 24.1972 31.8319C23.863 32.4155 23.3804 32.9003 22.7983 33.2372C22.2163 33.5741 21.5554 33.751 20.8829 33.75H15.1173C14.4448 33.751 13.784 33.5741 13.2019 33.2372C12.6198 32.9003 12.1372 32.4155 11.803 31.8319C11.4469 31.2311 11.256 30.5468 11.2498 29.8485C11.2435 29.1501 11.4222 28.4626 11.7676 27.8556H11.7699Z" fill="#FA2215"/>
<path d="M17.4375 31.4201V32.0625C17.4375 32.2117 17.4968 32.3548 17.6023 32.4602C17.7077 32.5657 17.8508 32.625 18 32.625C18.1492 32.625 18.2923 32.5657 18.3977 32.4602C18.5032 32.3548 18.5625 32.2117 18.5625 32.0625V31.4201C19.0441 31.2958 19.4709 31.0154 19.7762 30.6227C20.0815 30.2301 20.2481 29.7474 20.25 29.25V28.125C20.2481 27.6276 20.0815 27.1449 19.7762 26.7523C19.4709 26.3596 19.0441 26.0792 18.5625 25.9549V22.6564C18.733 22.7543 18.8747 22.8954 18.9734 23.0654C19.0721 23.2354 19.1244 23.4284 19.125 23.625V24.75C19.125 24.8992 19.1843 25.0423 19.2898 25.1477C19.3952 25.2532 19.5383 25.3125 19.6875 25.3125C19.8367 25.3125 19.9798 25.2532 20.0852 25.1477C20.1907 25.0423 20.25 24.8992 20.25 24.75V23.625C20.2481 23.1276 20.0815 22.6449 19.7762 22.2523C19.4709 21.8596 19.0441 21.5792 18.5625 21.4549V20.8125C18.5625 20.6633 18.5032 20.5202 18.3977 20.4148C18.2923 20.3093 18.1492 20.25 18 20.25C17.8508 20.25 17.7077 20.3093 17.6023 20.4148C17.4968 20.5202 17.4375 20.6633 17.4375 20.8125V21.4549C16.9559 21.5792 16.5291 21.8596 16.2238 22.2523C15.9185 22.6449 15.7519 23.1276 15.75 23.625V24.75C15.7519 25.2474 15.9185 25.7301 16.2238 26.1227C16.5291 26.5154 16.9559 26.7958 17.4375 26.9201V30.2186C17.267 30.1207 17.1253 29.9796 17.0266 29.8096C16.9279 29.6396 16.8756 29.4466 16.875 29.25V28.125C16.875 27.9758 16.8157 27.8327 16.7102 27.7273C16.6048 27.6218 16.4617 27.5625 16.3125 27.5625C16.1633 27.5625 16.0202 27.6218 15.9148 27.7273C15.8093 27.8327 15.75 27.9758 15.75 28.125V29.25C15.7519 29.7474 15.9185 30.2301 16.2238 30.6227C16.5291 31.0154 16.9559 31.2958 17.4375 31.4201V31.4201ZM18.5625 27.1564C18.733 27.2543 18.8747 27.3954 18.9734 27.5654C19.0721 27.7354 19.1244 27.9284 19.125 28.125V29.25C19.1244 29.4466 19.0721 29.6396 18.9734 29.8096C18.8747 29.9796 18.733 30.1207 18.5625 30.2186V27.1564ZM16.875 24.75V23.625C16.8756 23.4284 16.9279 23.2354 17.0266 23.0654C17.1253 22.8954 17.267 22.7543 17.4375 22.6564V25.7186C17.267 25.6207 17.1253 25.4796 17.0266 25.3096C16.9279 25.1396 16.8756 24.9466 16.875 24.75Z" fill="#FA2215"/>
<path d="M8.4375 34.875C8.58668 34.875 8.72976 34.8157 8.83525 34.7102C8.94074 34.6048 9 34.4617 9 34.3125V17.4375C9 17.2883 8.94074 17.1452 8.83525 17.0398C8.72976 16.9343 8.58668 16.875 8.4375 16.875H6.1875C6.03832 16.875 5.89524 16.9343 5.78975 17.0398C5.68426 17.1452 5.625 17.2883 5.625 17.4375V34.3125C5.625 34.4617 5.68426 34.6048 5.78975 34.7102C5.89524 34.8157 6.03832 34.875 6.1875 34.875H8.4375ZM6.75 18H7.875V33.75H6.75V18Z" fill="#FA2215"/>
<path d="M1.6875 34.875H3.9375C4.08668 34.875 4.22976 34.8157 4.33525 34.7102C4.44074 34.6048 4.5 34.4617 4.5 34.3125V12.9375C4.5 12.7883 4.44074 12.6452 4.33525 12.5398C4.22976 12.4343 4.08668 12.375 3.9375 12.375H1.6875C1.53832 12.375 1.39524 12.4343 1.28975 12.5398C1.18426 12.6452 1.125 12.7883 1.125 12.9375V34.3125C1.125 34.4617 1.18426 34.6048 1.28975 34.7102C1.39524 34.8157 1.53832 34.875 1.6875 34.875ZM2.25 13.5H3.375V33.75H2.25V13.5Z" fill="#FA2215"/>
<path d="M2.81239 5.62501H3.96608C4.1027 7.65208 4.96558 9.56194 6.39645 11.0043C7.82731 12.4466 9.73022 13.3247 11.7561 13.4775C11.8344 13.4845 11.9133 13.4752 11.9878 13.4502C12.0623 13.4251 12.1308 13.3849 12.1889 13.332C12.2471 13.2792 12.2936 13.2148 12.3257 13.143C12.3577 13.0712 12.3744 12.9936 12.3749 12.915C12.3763 12.7753 12.3249 12.6402 12.2311 12.5366C12.1373 12.4331 12.0078 12.3688 11.8686 12.3564C10.12 12.232 8.47417 11.4841 7.23036 10.2488C5.98656 9.01345 5.22745 7.37272 5.09108 5.62501H6.18739C6.28352 5.62553 6.37819 5.60141 6.46234 5.55495C6.5465 5.50849 6.61735 5.44123 6.66812 5.3596C6.71889 5.27797 6.7479 5.18469 6.75236 5.08866C6.75683 4.99263 6.73662 4.89706 6.69364 4.81107L5.00614 1.43607C4.95949 1.34246 4.88767 1.26372 4.79874 1.20868C4.70981 1.15364 4.60729 1.12448 4.50271 1.12448C4.39812 1.12448 4.29561 1.15364 4.20668 1.20868C4.11775 1.26372 4.04592 1.34246 3.99927 1.43607L2.31177 4.81107C2.26901 4.89664 2.24878 4.99169 2.25299 5.08726C2.25719 5.18282 2.2857 5.27573 2.33582 5.35721C2.38593 5.43868 2.45599 5.50603 2.53938 5.55289C2.62278 5.59975 2.71674 5.62457 2.81239 5.62501V5.62501ZM4.49989 2.94526L5.27727 4.50001H3.72252L4.49989 2.94526Z" fill="#FA2215"/>
<path d="M29.8125 34.875C29.9617 34.875 30.1048 34.8157 30.2102 34.7102C30.3157 34.6048 30.375 34.4617 30.375 34.3125V17.4375C30.375 17.2883 30.3157 17.1452 30.2102 17.0398C30.1048 16.9343 29.9617 16.875 29.8125 16.875H27.5625C27.4133 16.875 27.2702 16.9343 27.1648 17.0398C27.0593 17.1452 27 17.2883 27 17.4375V34.3125C27 34.4617 27.0593 34.6048 27.1648 34.7102C27.2702 34.8157 27.4133 34.875 27.5625 34.875H29.8125ZM28.125 18H29.25V33.75H28.125V18Z" fill="#FA2215"/>
<path d="M34.3125 12.375H32.0625C31.9133 12.375 31.7702 12.4343 31.6648 12.5398C31.5593 12.6452 31.5 12.7883 31.5 12.9375V34.3125C31.5 34.4617 31.5593 34.6048 31.6648 34.7102C31.7702 34.8157 31.9133 34.875 32.0625 34.875H34.3125C34.4617 34.875 34.6048 34.8157 34.7102 34.7102C34.8157 34.6048 34.875 34.4617 34.875 34.3125V12.9375C34.875 12.7883 34.8157 12.6452 34.7102 12.5398C34.6048 12.4343 34.4617 12.375 34.3125 12.375ZM33.75 33.75H32.625V13.5H33.75V33.75Z" fill="#FA2215"/>
<path d="M24.2438 13.4775C26.2697 13.3247 28.1726 12.4466 29.6035 11.0043C31.0343 9.56194 31.8972 7.65208 32.0338 5.62501H33.1875C33.2837 5.62553 33.3783 5.60141 33.4625 5.55495C33.5466 5.50849 33.6175 5.44123 33.6683 5.3596C33.719 5.27797 33.748 5.18469 33.7525 5.08866C33.757 4.99263 33.7367 4.89706 33.6938 4.81107L32.0063 1.43607C31.9596 1.34246 31.8878 1.26372 31.7989 1.20868C31.7099 1.15364 31.6074 1.12448 31.5028 1.12448C31.3983 1.12448 31.2957 1.15364 31.2068 1.20868C31.1179 1.26372 31.0461 1.34246 30.9994 1.43607L29.3119 4.81107C29.2691 4.89664 29.2489 4.99169 29.2531 5.08726C29.2573 5.18282 29.2858 5.27573 29.3359 5.35721C29.3861 5.43868 29.4561 5.50603 29.5395 5.55289C29.6229 5.59975 29.7169 5.62457 29.8125 5.62501H30.9088C30.7727 7.37292 30.0137 9.01392 28.7699 10.2495C27.5261 11.4851 25.8801 12.2331 24.1313 12.3576C23.9921 12.3699 23.8627 12.4342 23.7688 12.5378C23.675 12.6413 23.6236 12.7764 23.625 12.9161C23.6256 12.9946 23.6425 13.0721 23.6746 13.1438C23.7067 13.2154 23.7533 13.2797 23.8114 13.3324C23.8695 13.3851 23.938 13.4253 24.0124 13.4502C24.0868 13.4752 24.1656 13.4845 24.2438 13.4775V13.4775ZM30.7227 4.50001L31.5 2.94526L32.2774 4.50001H30.7227Z" fill="#FA2215"/>
<path d="M14.2794 6.17906C16.7949 6.62287 17.0019 6.82987 17.4457 9.34537C17.4686 9.47574 17.5366 9.59388 17.638 9.67901C17.7393 9.76414 17.8674 9.81081 17.9998 9.81081C18.1321 9.81081 18.2602 9.76414 18.3616 9.67901C18.4629 9.59388 18.531 9.47574 18.5538 9.34537C18.9977 6.82987 19.2047 6.62287 21.7202 6.17906C21.8505 6.15622 21.9687 6.08814 22.0538 5.9868C22.1389 5.88546 22.1856 5.75735 22.1856 5.62499C22.1856 5.49264 22.1389 5.36453 22.0538 5.26319C21.9687 5.16185 21.8505 5.09377 21.7202 5.07093C19.2047 4.62712 18.9977 4.42012 18.5538 1.90462C18.531 1.77425 18.4629 1.65611 18.3616 1.57098C18.2602 1.48585 18.1321 1.43918 17.9998 1.43918C17.8674 1.43918 17.7393 1.48585 17.638 1.57098C17.5366 1.65611 17.4686 1.77425 17.4457 1.90462C17.0019 4.42012 16.7949 4.62712 14.2794 5.07093C14.149 5.09377 14.0309 5.16185 13.9458 5.26319C13.8606 5.36453 13.814 5.49264 13.814 5.62499C13.814 5.75735 13.8606 5.88546 13.9458 5.9868C14.0309 6.08814 14.149 6.15622 14.2794 6.17906V6.17906ZM17.9998 4.20637C18.1288 4.52604 18.3209 4.81642 18.5646 5.06017C18.8083 5.30391 19.0987 5.49602 19.4184 5.62499C19.0987 5.75397 18.8083 5.94608 18.5646 6.18982C18.3209 6.43357 18.1288 6.72395 17.9998 7.04362C17.8708 6.72395 17.6787 6.43357 17.435 6.18982C17.1912 5.94608 16.9008 5.75397 16.5812 5.62499C16.9008 5.49602 17.1912 5.30391 17.435 5.06017C17.6787 4.81642 17.8708 4.52604 17.9998 4.20637V4.20637Z" fill="#FA2215"/>
</svg>
