<svg width="20" height="20" viewBox="0 0 20 20" fill="none" xmlns="http://www.w3.org/2000/svg">
<path d="M15.0004 10.9369C14.7532 10.9369 14.5115 10.8636 14.306 10.7263C14.1004 10.5889 13.9402 10.3937 13.8456 10.1653C13.751 9.93687 13.7262 9.68554 13.7744 9.44306C13.8227 9.20059 13.9417 8.97786 14.1165 8.80304L15.1077 7.81191H1.87543C1.54391 7.81191 1.22596 7.68021 0.991544 7.44579C0.757123 7.21137 0.625427 6.89343 0.625427 6.56191C0.625427 6.23039 0.757123 5.91245 0.991544 5.67802C1.22596 5.4436 1.54391 5.31191 1.87543 5.31191H15.1077L14.1165 4.32081C13.8821 4.08639 13.7504 3.76845 13.7504 3.43692C13.7504 3.1054 13.8821 2.78745 14.1165 2.55302C14.3509 2.31859 14.6689 2.18689 15.0004 2.18689C15.3319 2.18689 15.6499 2.31858 15.8843 2.553L19.0093 5.678C19.2434 5.91262 19.3748 6.23049 19.3748 6.56189C19.3748 6.89329 19.2434 7.21116 19.0093 7.44578L15.8843 10.5708C15.7685 10.6872 15.6308 10.7795 15.479 10.8424C15.3273 10.9052 15.1646 10.9374 15.0004 10.9369ZM1.87543 5.93691C1.70967 5.93691 1.5507 6.00276 1.43349 6.11997C1.31628 6.23718 1.25043 6.39615 1.25043 6.56191C1.25043 6.72767 1.31628 6.88664 1.43349 7.00385C1.5507 7.12106 1.70967 7.18691 1.87543 7.18691H15.8621C15.9239 7.18691 15.9843 7.20523 16.0357 7.23957C16.0871 7.27391 16.1272 7.32272 16.1508 7.37982C16.1745 7.43692 16.1807 7.49976 16.1686 7.56038C16.1566 7.621 16.1268 7.67668 16.0831 7.72039L14.5584 9.24496C14.4412 9.36217 14.3754 9.52116 14.3754 9.68693C14.3753 9.85271 14.4412 10.0117 14.5584 10.1289C14.6756 10.2461 14.8346 10.312 15.0004 10.312C15.1662 10.312 15.3252 10.2462 15.4424 10.1289L18.5674 7.00394C18.6844 6.88663 18.7501 6.72769 18.7501 6.56199C18.7501 6.39628 18.6844 6.23735 18.5674 6.12003L15.4424 2.99503C15.3252 2.87781 15.1662 2.81196 15.0004 2.81196C14.8347 2.81195 14.6757 2.8778 14.5585 2.99501C14.4412 3.11223 14.3754 3.2712 14.3754 3.43697C14.3754 3.60274 14.4412 3.76172 14.5584 3.87894L16.083 5.40355C16.1267 5.44725 16.1565 5.50293 16.1685 5.56355C16.1806 5.62416 16.1744 5.68699 16.1507 5.74408C16.1271 5.80118 16.087 5.84998 16.0356 5.88432C15.9842 5.91865 15.9238 5.93698 15.862 5.93699L1.87543 5.93691Z" fill="#3E3E3E"/>
<path d="M4.99941 17.8125C4.83519 17.813 4.67251 17.7808 4.52079 17.718C4.36907 17.6552 4.23131 17.5628 4.11551 17.4464L0.990506 14.3214C0.756447 14.0868 0.625 13.7689 0.625 13.4375C0.625 13.1061 0.756447 12.7883 0.990506 12.5536L4.11551 9.42864C4.34992 9.19421 4.66786 9.06251 4.99938 9.0625C5.33091 9.06249 5.64885 9.19418 5.88328 9.4286C6.11771 9.66301 6.24941 9.98096 6.24942 10.3125C6.24942 10.644 6.11773 10.9619 5.88332 11.1964L4.89219 12.1875H18.1244C18.4559 12.1875 18.7739 12.3192 19.0083 12.5536C19.2427 12.788 19.3744 13.106 19.3744 13.4375C19.3744 13.769 19.2427 14.087 19.0083 14.3214C18.7739 14.5558 18.4559 14.6875 18.1244 14.6875H4.89219L5.88332 15.6786C6.05814 15.8534 6.1772 16.0761 6.22544 16.3186C6.27367 16.5611 6.24892 16.8125 6.1543 17.0409C6.05969 17.2693 5.89947 17.4645 5.6939 17.6019C5.48833 17.7392 5.24665 17.8125 4.99941 17.8125V17.8125ZM4.99941 9.68782C4.91733 9.68767 4.83603 9.70374 4.76018 9.7351C4.68433 9.76647 4.61542 9.81251 4.55742 9.87059L1.43242 12.9956C1.31539 13.1129 1.24966 13.2718 1.24966 13.4375C1.24966 13.6032 1.31539 13.7622 1.43242 13.8795L4.55742 17.0045C4.67463 17.1217 4.83361 17.1875 4.99938 17.1876C5.16516 17.1876 5.32414 17.1217 5.44137 17.0045C5.55859 16.8873 5.62445 16.7283 5.62446 16.5625C5.62446 16.3968 5.55862 16.2378 5.4414 16.1206L3.91683 14.596C3.87313 14.5523 3.84337 14.4966 3.83131 14.436C3.81925 14.3754 3.82543 14.3126 3.84907 14.2555C3.87272 14.1984 3.91276 14.1495 3.96414 14.1152C4.01552 14.0809 4.07593 14.0625 4.13773 14.0625H18.1244C18.2902 14.0625 18.4491 13.9967 18.5664 13.8794C18.6836 13.7622 18.7494 13.6033 18.7494 13.4375C18.7494 13.2717 18.6836 13.1128 18.5664 12.9956C18.4491 12.8784 18.2902 12.8125 18.1244 12.8125H4.13773C4.07592 12.8125 4.0155 12.7942 3.96411 12.7598C3.91272 12.7255 3.87266 12.6767 3.84901 12.6196C3.82536 12.5625 3.81917 12.4997 3.83123 12.439C3.84329 12.3784 3.87305 12.3227 3.91676 12.279L5.44133 10.7544C5.5287 10.667 5.5882 10.5557 5.6123 10.4345C5.63639 10.3133 5.62401 10.1877 5.5767 10.0736C5.5294 9.9594 5.4493 9.86184 5.34654 9.79321C5.24378 9.72458 5.12298 9.68797 4.99941 9.68801V9.68782Z" fill="#3E3E3E"/>
</svg>
